<svg xmlns="http://www.w3.org/2000/svg" viewBox="0 0 1948.77 903.11">
  <defs>
    <style>
      .cls-1 {
        fill: #ff5548;
      }

      .cls-2 {
        fill: #fe7814;
      }
    </style>
  </defs>
  <g id="Layer_2" data-name="Layer 2">
    <g id="Layer_10" data-name="Layer 10">
      <g>
        <g>
          <g>
            <path class="cls-1" d="M1423,889.34c.19,14.28-14.46,16.68-22.66,10V891.9h.28c3.81,5.08,11.71,8.21,16.29,3.82,3.22-3.27,2.71-11-1.84-12.12-4-1.55-10.18-1.81-12.67-6.31-7.41-16.74,7.62-26.06,19.42-17.64v7h-.28c-5.35-7.81-21.07-6.68-16,6.47C1411.48,879.38,1423.24,874.67,1423,889.34Z"/>
            <path class="cls-1" d="M1452,902.13h-4.16L1445,889.64h-12.71l-2.89,12.49h-4l10.69-44.8h5.22Zm-8.25-17.6-5.15-22-5.17,22Z"/>
            <path class="cls-1" d="M1478.49,857.33l-10.7,44.8h-5.21l-10.7-44.8h4.19l9.22,39.41,9.21-39.41Z"/>
            <path class="cls-1" d="M1502.31,902.13H1483v-44.8h19.36v5.3h-15.45V874.9h15.45v5.3h-15.45v16.63h15.45Z"/>
          </g>
          <g>
            <path class="cls-1" d="M1558.84,862.48c5.09,9.34,5.08,25.14,0,34.47-4.45,8.18-15.41,8.1-19.89,0-5.08-9.38-5-25.05,0-34.47A11.18,11.18,0,0,1,1558.84,862.48Zm-.35,17.27c.83-24.31-20-24.31-19.17,0C1538.49,904,1559.33,904,1558.49,879.75Z"/>
            <path class="cls-1" d="M1603,857.33l-7.63,44.8h-4.41l-6.17-37.19-6,37.19h-4.31l-7.77-44.8h4l6.17,37.25,6.08-37.25h4l6.14,37.61,6.14-37.61Z"/>
            <path class="cls-1" d="M1631.14,902.13h-4.84l-13.93-40.08v40.08h-3.65v-44.8h6.06l12.71,36.59V857.33h3.65Z"/>
          </g>
          <g>
            <path class="cls-1" d="M1690.07,898.88c-32.6,23.83-32.54-61.77,0-38.42v7.07h-.29c-14-16.51-23.27,3.84-19.18,20.37,2.11,11.8,13.52,12.71,19.2,4h.27Z"/>
            <path class="cls-1" d="M1717.51,862.48c5.08,9.34,5.07,25.14,0,34.47-4.45,8.18-15.41,8.1-19.9,0-5.07-9.38-5-25.05,0-34.47A11.19,11.19,0,0,1,1717.51,862.48Zm-.36,17.27c.84-24.31-20-24.31-19.16,0C1697.16,904,1718,904,1717.15,879.75Z"/>
            <path class="cls-1" d="M1749.33,862.48c5.08,9.34,5.07,25.14,0,34.47a11.16,11.16,0,0,1-19.9,0c-5.08-9.38-5-25.05,0-34.47A11.19,11.19,0,0,1,1749.33,862.48Zm-.36,17.27c.83-24.31-20-24.31-19.17,0C1729,904,1749.82,904,1749,879.75Z"/>
            <path class="cls-1" d="M1782.86,902.13h-5.07l-11.63-20-2.92,4.76v15.19h-3.91v-44.8h3.91v23.38l14.27-23.38h4.74l-13.13,21.06Z"/>
          </g>
          <g>
            <path class="cls-1" d="M1837,889.34c.19,14.28-14.47,16.68-22.66,10V891.9h.28c3.81,5.08,11.71,8.21,16.29,3.82,3.22-3.27,2.71-11-1.85-12.12-4-1.55-10.18-1.81-12.66-6.31-7.41-16.74,7.62-26.06,19.41-17.64v7h-.27c-5.35-7.81-21.07-6.68-16,6.47C1825.51,879.38,1837.26,874.67,1837,889.34Z"/>
            <path class="cls-1" d="M1865.78,902.13h-3.91V880.2H1847.2v21.93h-3.91v-44.8h3.91V874.9h14.67V857.33h3.91Z"/>
            <path class="cls-1" d="M1896.84,902.13h-4.16l-2.88-12.49h-12.72l-2.88,12.49h-4l10.69-44.8h5.21Zm-8.25-17.6-5.15-22-5.17,22Z"/>
            <path class="cls-1" d="M1925.62,902.13h-5.07l-9.83-17.81h-5.51v17.81h-3.91v-44.8c2.88.13,10.13-.36,12.67.53,9.13,2.68,8.42,20.58.6,24.68Zm-9.14-32.19c.25-8.31-6.24-7.64-11.27-7.49v16.9C1911.49,879.77,1916.67,879.21,1916.48,869.94Z"/>
            <path class="cls-1" d="M1948.77,902.13h-19.36v-44.8h19.36v5.3h-15.45V874.9h15.45v5.3h-15.45v16.63h15.45Z"/>
          </g>
        </g>
        <g>
          <path class="cls-1" d="M510.34,731.65a13.33,13.33,0,0,0-2.58-6.3c-1.32-1.64-3.49-2.47-6.53-2.47H444.75v35.46h97.48a4,4,0,0,0,3.64-2.1c.81-1.39,1.41-4.51,1.82-9.34h3.65v65.2h-3.65c-.41-3.3-1-5.33-1.82-6.1a5.16,5.16,0,0,0-3.64-1.14H390.7v-4.57q5.78-.76,7.14-2.48a6.85,6.85,0,0,0,1.36-4.39V615.73a6.83,6.83,0,0,0-1.36-4.39q-1.36-1.71-7.14-2.48v-4.57H542.23a4,4,0,0,0,3.64-2.1c.81-1.39,1.41-4.26,1.82-8.58h3.65V660h-3.65c-.41-4.32-1-7.18-1.82-8.58a4,4,0,0,0-3.64-2.1H444.75v31.65h56.48c3,0,5.21-.82,6.53-2.48a13.2,13.2,0,0,0,2.58-6.29H514v59.49Z"/>
          <path class="cls-1" d="M690.75,791.7a7.35,7.35,0,0,0,1.22,4.39q1.21,1.71,6.37,2.48v4.57H642.49v-4.57c3.43-.51,5.56-1.34,6.37-2.48a7.35,7.35,0,0,0,1.22-4.39V614a7.37,7.37,0,0,0-1.22-4.39c-.81-1.14-2.94-2-6.37-2.47v-4.58h99.22q30.1,0,43.65,15.44t13.56,47.86q0,26.31-11,41.18a61.43,61.43,0,0,1-27.79,21.35l32,63.3c2.17,4.58,4.78,6.87,7.86,6.87v4.57H743.61v-4.57c4-.25,6-2.54,6-6.87,0-.5-.73-2.28-2.17-5.33s-3.26-6.74-5.43-11.06-4.56-9-7.18-13.92-5.15-9.72-7.59-14.3-4.57-8.64-6.37-12.2-3-6-3.52-7.25H690.75Zm45.54-104.48q11.93,0,16.4-6.29a26.29,26.29,0,0,0,0-29.36q-4.47-6.3-16.4-6.29H690.75v41.94Z"/>
          <path class="cls-1" d="M1009.26,731.65a13.42,13.42,0,0,0-2.57-6.3c-1.31-1.64-3.47-2.47-6.48-2.47H944.07v35.46H1041a3.93,3.93,0,0,0,3.62-2.1c.8-1.39,1.4-4.51,1.81-9.34H1050v65.2h-3.62q-.62-5-1.81-6.1a5.12,5.12,0,0,0-3.62-1.14H890.36v-4.57q5.73-.76,7.09-2.48a6.91,6.91,0,0,0,1.36-4.39V615.73a6.89,6.89,0,0,0-1.36-4.39q-1.37-1.71-7.09-2.48v-4.57H1041a3.93,3.93,0,0,0,3.62-2.1c.8-1.39,1.4-4.26,1.81-8.58H1050V660h-3.62q-.62-6.48-1.81-8.58a4,4,0,0,0-3.62-2.1H944.07v31.65h56.14c3,0,5.17-.82,6.48-2.48a13.3,13.3,0,0,0,2.57-6.29h3.62v59.49Z"/>
          <path class="cls-1" d="M1274.91,725.67l25,58.85-2.91,2.63a4.16,4.16,0,0,0-1.33-2.44,3.71,3.71,0,0,0-2.06-.56c-1.14,0-3.4,1.07-6.8,3.18a103.16,103.16,0,0,1-13.21,6.75,125.26,125.26,0,0,1-19,6.37,98.11,98.11,0,0,1-24.5,2.82,76.22,76.22,0,0,1-28.86-5.81,70.35,70.35,0,0,1-25.71-18.37q-11.4-12.55-18.44-31.49t-7-44c0-.19,0-.37,0-.56a2.62,2.62,0,0,1,0-.28c0-.19,0-.37,0-.56q0-25.11,7-44t18.44-31.49a70.35,70.35,0,0,1,25.71-18.37,76.22,76.22,0,0,1,28.86-5.81,98.11,98.11,0,0,1,24.5,2.82,125.26,125.26,0,0,1,19,6.37,103.16,103.16,0,0,1,13.21,6.75c3.4,2.11,5.66,3.18,6.8,3.18a3.71,3.71,0,0,0,2.06-.56,4.16,4.16,0,0,0,1.33-2.44l2.91,2.63-25,58.85-2.67-2.63c.32-1,.65-1.87,1-2.62a7.75,7.75,0,0,0,.49-3q0-4.12-5.22-7.87a66.91,66.91,0,0,0-12-6.75,82.9,82.9,0,0,0-13.59-4.68,46.22,46.22,0,0,0-9.94-1.69,49,49,0,0,0-15.28,2.62,40.6,40.6,0,0,0-14.67,8.63A44.38,44.38,0,0,0,1192.08,678q-4.24,9.91-4.24,24.17c0,.19,0,.37,0,.56a2.62,2.62,0,0,0,0,.28c0,.19,0,.37,0,.56q0,14.25,4.24,24.17A44.38,44.38,0,0,0,1203,743.66a40.6,40.6,0,0,0,14.67,8.63,49,49,0,0,0,15.28,2.62,46.22,46.22,0,0,0,9.94-1.69,82.9,82.9,0,0,0,13.59-4.68,66.91,66.91,0,0,0,12-6.75q5.22-3.74,5.22-7.87a7.75,7.75,0,0,0-.49-3c-.32-.75-.65-1.62-1-2.62Z"/>
          <path class="cls-1" d="M1391.53,798.57c4.17-.51,6.76-1.34,7.75-2.48a6.47,6.47,0,0,0,1.49-4.39V614a6.49,6.49,0,0,0-1.49-4.39c-1-1.14-3.58-2-7.75-2.47v-4.58h68.17v4.58c-4.18.51-6.46,1.33-7.45,2.47a6.49,6.49,0,0,0-1.49,4.39V791.7a6.47,6.47,0,0,0,1.49,4.39c1,1.14,3.27,2,7.45,2.48v4.57h-68.17Z"/>
          <path class="cls-1" d="M1593.68,791.7a7,7,0,0,0,1.3,4.39c.87,1.14,3.12,2,6.78,2.48v4.57h-59.43v-4.57c3.65-.51,5.92-1.34,6.78-2.48a7,7,0,0,0,1.3-4.39V614a7.06,7.06,0,0,0-1.3-4.39c-.86-1.14-3.13-2-6.78-2.47v-4.58h103.28a53.24,53.24,0,0,1,23.94,5.15,49.87,49.87,0,0,1,17.31,13.92,60.24,60.24,0,0,1,10.39,20.4,86.43,86.43,0,0,1,0,48.42,58.15,58.15,0,0,1-10.39,20.21,50.88,50.88,0,0,1-17.31,13.73,53.24,53.24,0,0,1-23.94,5.15h-51.93Zm43.85-102.57q12.12,0,17.74-5.34t5.63-17.54q0-11.06-5.63-16t-17.74-5h-43.85v43.85Z"/>
          <path class="cls-1" d="M1908.36,731.65a13.51,13.51,0,0,0-2.55-6.3c-1.3-1.64-3.44-2.47-6.44-2.47h-55.68v35.46h96.1a3.89,3.89,0,0,0,3.59-2.1c.8-1.39,1.4-4.51,1.8-9.34h3.59v65.2h-3.59q-.6-5-1.8-6.1a5,5,0,0,0-3.59-1.14H1790.4v-4.57q5.68-.76,7-2.48a6.9,6.9,0,0,0,1.35-4.39V615.73a6.88,6.88,0,0,0-1.35-4.39q-1.35-1.71-7-2.48v-4.57h149.39a3.89,3.89,0,0,0,3.59-2.1c.8-1.39,1.4-4.26,1.8-8.58h3.59V660h-3.59q-.6-6.48-1.8-8.58a3.91,3.91,0,0,0-3.59-2.1h-96.1v31.65h55.68c3,0,5.14-.82,6.44-2.48a13.38,13.38,0,0,0,2.55-6.29H1912v59.49Z"/>
          <path class="cls-1" d="M243.12,602.86v4.56c14.91,1.88,1.07,22.79-.68,35-7.83,27.52-18.43,61.28-25.4,88.22h-.67C209.8,702.53,201.12,667.55,194,639c-1.12-10.9-12.28-30.22-.34-31.56v-4.56H113.09v4.56c2.41,1.2,7.34,1.42,7.11,5.7-1,6.52-3.86,16.67-6.26,25.86-7.81,28.83-17.45,63.26-25.23,91.64H88c-7.72-28.78-18.14-63-26.42-92C60,626.9,47.46,608.79,62,607.42v-4.56H0v4.56c4.8,2,3,5.5,6.1,13.69,10.19,35.94,23,77.41,33.69,114.26C44.62,752.2,49.86,769.21,54,783.46c3.38,10.14,3.26,13-4.57,14.84v4.56H247.86V798.3c-7.8-.94-7.91-3.82-4.57-13.88,7.17-24.4,15.81-54,23.87-79.85,8.18-26.16,17.07-55.87,24.37-80.61,3.8-9.44,1.05-13.86,8.47-16.54v-4.56Zm-61.81,178.9c3.2-33.45-30.08-49.11-33.88-79.92-14,29.32,8.66,57.26,19.31,82.85-.47.34-20-18.05-29.17-26.43-.68,15.54,3.26,30,16.47,40.75-54.87-26.34-35.6-119.79,4.35-152.73C149.44,682.4,152.61,708.6,180,724,208.83,737.92,196,761.85,181.31,781.76Z"/>
        </g>
      </g>
      <g>
        <path class="cls-2" d="M974.38,0c-36.16,59.8-139.24,278.45-16.7,300-37.54-40-27.3-106.4,16.7-150.13,44,43.73,54.24,110.13,16.71,150.13C1113.63,278.45,1010.54,59.8,974.38,0Z"/>
        <path class="cls-2" d="M918.37,466.11c6.22-65.7-58.49-96.46-65.87-157C825.24,366.72,869.32,421.61,890,471.88c-.93.66-38.94-35.47-56.73-51.93-1.31,30.52,6.34,58.85,32,80.05-106.68-51.74-69.22-235.3,8.46-300-17.4,70.94-11.25,122.4,42.1,152.56C971.88,380,947,427,918.37,466.11Z"/>
        <path class="cls-2" d="M1030.4,466.11c-6.22-65.7,58.49-96.46,65.87-157,27.26,57.59-16.82,112.48-37.54,162.75.92.66,38.94-35.47,56.73-51.93,1.31,30.52-6.34,58.85-32,80.05,106.68-51.74,69.22-235.3-8.46-300,17.4,70.94,11.25,122.4-42.1,152.56C976.89,380,1001.81,427,1030.4,466.11Z"/>
      </g>
    </g>
  </g>
</svg>
